<?xml version="1.0" standalone="no"?>
<!DOCTYPE svg PUBLIC "-//W3C//DTD SVG 20010904//EN"
 "http://www.w3.org/TR/2001/REC-SVG-20010904/DTD/svg10.dtd">
<svg version="1.0" xmlns="http://www.w3.org/2000/svg"
 width="700.000000pt" height="700.000000pt" viewBox="0 0 700.000000 700.000000"
 preserveAspectRatio="xMidYMid meet">
<metadata>
Created by potrace 1.14, written by Peter Selinger 2001-2017
</metadata>
<g transform="translate(0.000000,700.000000) scale(0.100000,-0.100000)"
fill="#000000" stroke="none">
<path d="M3189 4386 c-2 -2 -47 -6 -99 -10 -52 -4 -104 -9 -115 -11 -11 -2
-45 -7 -75 -10 -53 -5 -157 -21 -210 -31 -14 -2 -41 -7 -60 -10 -56 -9 -203
-42 -360 -80 -80 -20 -153 -38 -164 -40 -220 -43 -993 -281 -1219 -375 -61
-25 -79 -20 -71 20 6 27 0 36 -47 81 l-54 51 90 -7 c50 -4 104 -8 120 -9 17
-2 71 -6 120 -10 50 -4 92 -8 95 -9 3 0 7 4 8 9 2 6 -56 24 -129 42 -106 26
-159 33 -256 35 -67 1 -125 0 -128 -4 -21 -20 -8 -45 39 -80 28 -21 59 -41 69
-44 15 -6 17 -16 14 -66 -5 -67 -6 -69 -89 -95 -32 -10 -58 -21 -58 -25 0 -3
35 5 78 18 123 40 491 147 582 170 47 12 312 84 460 124 63 18 203 52 310 76
107 23 285 66 394 94 220 55 212 54 323 70 43 6 94 13 113 16 19 3 51 7 70 9
19 3 72 10 118 15 120 16 375 13 516 -5 98 -13 119 -16 183 -30 97 -20 200
-58 403 -147 97 -42 276 -133 339 -171 36 -22 108 -60 159 -85 51 -24 92 -45
90 -47 -2 -1 -28 -6 -58 -9 -30 -4 -68 -8 -85 -10 -29 -4 -100 -9 -315 -22
-58 -4 -276 -6 -485 -5 -381 2 -423 3 -635 15 -107 6 -168 9 -439 21 -146 7
-258 14 -311 22 -51 7 -544 6 -575 -1 -11 -2 -37 -5 -58 -5 -21 -1 -36 -4 -34
-8 3 -5 -21 -9 -52 -9 -31 -1 -90 -9 -131 -19 -151 -35 -303 -75 -308 -80 -15
-15 17 -15 105 -1 54 8 118 18 143 22 24 3 47 7 50 9 6 4 43 7 225 21 120 9
288 8 470 -1 83 -4 170 -9 195 -10 25 -1 133 -6 240 -10 107 -4 224 -8 260
-10 345 -16 497 -19 900 -19 435 1 773 8 788 18 4 2 36 7 72 11 36 4 90 12
120 19 60 14 61 14 140 -7 32 -8 60 -11 66 -6 6 5 15 5 20 0 5 -5 38 -12 74
-15 36 -3 83 -8 105 -10 22 -3 74 -7 115 -10 41 -4 91 -8 110 -10 19 -3 64 -7
100 -11 36 -3 76 -8 90 -10 14 -2 50 -6 80 -9 128 -14 280 -59 575 -173 79
-30 382 -182 443 -221 42 -28 23 8 -39 73 -75 79 -183 154 -292 205 -84 39
-319 121 -417 146 -30 8 -62 16 -70 19 -99 29 -488 90 -730 115 -58 6 -121 12
-140 14 -19 3 -71 8 -115 12 -44 4 -82 8 -85 9 -51 11 -303 130 -455 214 -49
28 -133 69 -185 91 -52 23 -104 45 -115 50 -94 41 -271 93 -445 132 -105 23
-171 31 -294 35 -134 5 -158 4 -151 -8 7 -11 6 -12 -7 -2 -8 7 -17 11 -19 9z"/>
<path d="M3100 4229 c-47 -4 -107 -9 -135 -12 -27 -4 -75 -9 -105 -12 -164
-16 -538 -99 -724 -159 -73 -24 -300 -135 -293 -143 2 -2 26 6 53 16 84 33
328 110 385 122 30 6 59 12 64 13 6 2 29 7 52 11 24 4 41 10 39 14 -2 3 10 6
27 6 18 1 46 4 62 7 17 4 44 10 60 13 17 3 44 8 60 12 43 9 54 11 110 19 28 3
52 7 55 9 30 17 548 26 685 11 92 -9 104 -13 349 -118 115 -49 256 -108 315
-130 58 -23 120 -50 136 -60 17 -10 36 -18 44 -18 25 0 -120 84 -384 223 -170
89 -316 149 -390 162 -99 16 -340 23 -465 14z"/>
<path d="M490 3589 c0 -6 -9 -24 -21 -40 -11 -16 -19 -40 -17 -55 l3 -27 183
0 c125 0 187 4 195 12 6 6 30 11 53 11 24 0 46 5 49 10 3 6 15 10 26 10 11 0
18 4 15 9 -4 5 -23 7 -44 4 -71 -10 -158 -16 -300 -20 l-143 -4 7 50 c4 28 4
51 0 51 -3 0 -6 -5 -6 -11z"/>
<path d="M887 3389 c-127 -20 -232 -78 -269 -151 -23 -44 -32 -127 -17 -165
21 -57 67 -91 168 -124 52 -18 105 -42 118 -55 59 -59 -10 -179 -91 -158 -30
7 -47 39 -49 94 l-2 45 -90 -2 c-117 -2 -112 -1 -112 -15 0 -7 -8 -42 -17 -77
l-18 -65 24 -17 c77 -59 329 -68 465 -17 105 39 163 127 158 239 -5 108 -54
155 -199 191 -96 24 -136 51 -136 93 0 55 45 104 94 105 39 0 55 -25 56 -86
l0 -50 94 0 95 0 21 79 c21 76 21 79 3 93 -52 39 -190 59 -296 43z"/>
<path d="M2250 3388 c-156 -23 -285 -153 -320 -323 -17 -81 -11 -220 13 -275
41 -99 102 -131 257 -138 208 -9 313 46 392 203 46 91 58 145 59 255 1 182
-87 276 -267 283 -43 2 -104 -1 -134 -5z m137 -94 c34 -46 -4 -326 -62 -452
-48 -105 -106 -140 -141 -87 -14 22 -16 43 -11 128 7 116 9 129 38 223 51 167
130 251 176 188z"/>
<path d="M4605 3387 c-156 -27 -289 -155 -326 -314 -16 -72 -14 -180 5 -247
51 -173 270 -236 403 -114 l21 20 7 -31 c9 -40 19 -45 88 -46 42 0 58 4 62 15
2 8 16 74 30 145 14 72 28 140 30 153 l5 22 -149 0 -148 0 -7 -31 c-9 -48 -8
-51 22 -49 60 4 65 2 57 -27 -22 -89 -79 -156 -123 -148 -10 2 -20 4 -24 4
-19 2 -35 60 -33 121 11 281 122 523 204 441 15 -15 18 -31 15 -91 -2 -41 -6
-80 -8 -87 -4 -10 16 -13 94 -13 55 0 100 2 100 4 0 2 9 48 20 101 11 53 20
103 20 109 0 12 -99 52 -155 62 -53 10 -159 10 -210 1z"/>
<path d="M1352 3381 c-5 -3 -12 -19 -15 -36 -3 -16 -27 -124 -52 -240 -25
-115 -47 -221 -50 -235 -2 -14 -13 -65 -24 -115 -11 -49 -18 -91 -16 -93 9
-10 245 -6 246 3 0 6 2 17 4 25 2 8 11 53 21 100 9 47 21 90 26 96 4 6 38 12
75 13 220 6 334 105 335 291 1 100 -52 164 -152 185 -41 9 -386 14 -398 6z
m319 -92 c21 -34 9 -157 -23 -230 -25 -60 -59 -89 -104 -89 -37 0 -38 3 -25
65 5 22 18 85 30 140 31 146 26 137 73 132 22 -3 44 -11 49 -18z"/>
<path d="M2759 3346 c-7 -25 -7 -41 -1 -45 6 -3 46 -5 90 -5 77 2 80 1 76 -20
-2 -11 -6 -32 -9 -46 -2 -14 -27 -126 -54 -250 -27 -124 -52 -242 -55 -264 -4
-21 -9 -42 -12 -47 -6 -11 -16 -10 128 -12 l118 -2 5 25 c3 14 7 35 10 48 2
13 6 31 9 40 3 9 8 31 11 47 2 17 27 131 53 255 l49 225 87 1 c47 0 91 5 95
10 5 5 11 25 13 44 l3 35 -303 0 -302 0 -11 -39z"/>
<path d="M3449 3362 c-5 -13 -9 -28 -9 -33 0 -6 -16 -86 -36 -177 -20 -92 -38
-178 -41 -192 -2 -14 -17 -86 -34 -159 -16 -74 -29 -137 -29 -140 0 -5 385 -6
466 -2 11 1 21 7 21 14 0 6 3 28 6 47 l7 35 -115 -3 c-63 -2 -115 0 -115 5 0
4 5 26 10 48 5 22 11 54 14 72 5 28 23 111 87 401 12 51 18 96 14 100 -3 4
-58 7 -122 7 -112 0 -116 0 -124 -23z"/>
<path d="M4011 3380 c-6 -4 -17 -52 -65 -286 -3 -10 -19 -84 -36 -164 -17 -80
-34 -156 -36 -170 -3 -14 -9 -42 -14 -62 -4 -21 -5 -38 -1 -39 3 0 59 -1 123
-2 l117 -2 10 45 c5 25 21 97 35 160 14 63 28 126 30 140 2 14 19 90 36 170
18 80 34 161 37 180 l4 35 -116 0 c-64 0 -120 -2 -124 -5z"/>
<path d="M5114 3375 c-2 -5 -6 -23 -9 -40 -9 -47 -13 -63 -76 -359 -32 -153
-62 -288 -65 -300 -5 -21 -3 -21 121 -21 69 0 125 0 125 1 0 5 62 293 66 307
4 14 17 17 73 17 l68 0 -5 -27 c-2 -16 -17 -86 -33 -158 -15 -71 -24 -132 -19
-135 11 -7 228 -5 236 2 3 3 35 142 70 309 36 167 68 313 70 324 3 11 8 36 11
55 l5 36 -121 -1 c-66 0 -122 -3 -124 -5 -5 -6 -63 -272 -66 -302 -1 -5 -33
-8 -71 -8 l-70 0 5 28 c13 70 17 92 36 169 29 128 38 118 -102 118 -73 0 -123
-4 -125 -10z"/>
<path d="M5830 3375 c-4 -5 -10 -25 -12 -44 l-3 -34 88 0 c48 0 87 -2 87 -5 0
-2 -11 -55 -24 -116 -57 -258 -106 -492 -106 -506 0 -12 20 -15 117 -15 77 0
121 4 125 11 4 7 10 29 13 50 3 22 8 45 11 53 2 8 27 120 54 250 28 130 52
245 55 257 4 18 12 20 96 22 50 1 93 3 94 4 2 2 6 21 9 43 l7 40 -301 0 c-190
0 -305 -4 -310 -10z"/>
<path d="M1189 2468 c-1 -5 -2 -11 -3 -15 -3 -11 -19 -96 -22 -113 -1 -8 -5
-36 -9 -62 l-8 -47 71 3 c78 5 114 22 138 67 31 61 11 130 -45 159 -27 14
-120 20 -122 8z m118 -33 c47 -33 49 -103 5 -148 -22 -22 -38 -28 -75 -29 -26
0 -50 2 -53 5 -5 4 10 113 22 160 1 4 2 12 3 17 2 15 74 12 98 -5z"/>
<path d="M2158 2472 c-16 -2 -28 -6 -28 -10 0 -4 -7 -47 -16 -97 -8 -49 -17
-100 -19 -112 -3 -22 -1 -23 49 -19 46 3 95 21 97 36 0 3 2 14 4 25 2 11 -3
30 -11 43 -13 20 -13 24 1 39 39 39 -13 104 -77 95z m53 -33 c15 -7 18 -16 13
-32 -9 -28 -22 -37 -58 -37 -25 0 -28 3 -22 23 3 12 6 30 6 40 0 19 30 23 61
6z m-10 -99 c21 -12 26 -52 7 -68 -13 -10 -39 -15 -70 -13 -14 1 -16 8 -11 39
8 51 32 64 74 42z"/>
<path d="M2617 2458 c-36 -58 -125 -228 -119 -228 12 0 27 14 45 42 16 26 34
29 98 19 4 -1 9 -14 13 -31 5 -28 26 -43 26 -18 0 16 -41 232 -45 236 -2 2
-10 -7 -18 -20z m14 -65 c1 -10 3 -30 5 -45 3 -26 0 -28 -31 -28 l-35 0 22 45
c23 47 37 57 39 28z"/>
<path d="M2992 2463 c-6 -10 -13 -43 -17 -73 -4 -30 -9 -64 -11 -75 -2 -11 -7
-35 -10 -54 -5 -26 -4 -33 7 -29 8 3 17 22 20 44 4 21 10 55 13 74 12 67 18
130 12 130 -3 0 -9 -8 -14 -17z"/>
<path d="M3590 2463 c0 -8 14 -13 36 -13 l36 0 -7 -42 c-4 -24 -9 -52 -11 -63
-13 -70 -16 -115 -6 -115 12 0 20 29 37 145 10 71 13 75 56 75 21 0 39 5 39
10 0 12 5 11 -98 13 -60 2 -82 -1 -82 -10z"/>
<path d="M4108 2471 c-126 -29 -133 -221 -9 -238 44 -6 89 14 120 53 70 89 -2
210 -111 185z m79 -36 c72 -50 10 -192 -77 -179 -41 7 -48 12 -65 44 -13 24
-14 38 -5 70 19 69 94 102 147 65z"/>
<path d="M5020 2471 c-8 -3 -16 -11 -17 -18 -1 -6 -5 -26 -8 -45 -3 -18 -10
-57 -15 -87 -13 -69 -13 -91 0 -91 8 0 23 52 25 85 0 6 9 11 21 13 16 2 25 -8
43 -48 12 -27 27 -50 32 -50 14 0 11 17 -10 60 l-19 39 30 23 c54 42 33 109
-37 121 -16 2 -37 2 -45 -2z m74 -37 c33 -32 9 -73 -46 -78 -39 -4 -39 -3 -23
72 6 26 45 30 69 6z"/>
<path d="M5455 2468 c-27 -15 -35 -28 -35 -61 0 -21 10 -34 40 -55 21 -15 41
-32 44 -39 8 -20 -5 -51 -26 -56 -24 -7 -68 8 -68 23 0 5 -7 10 -15 10 -28 0
-14 -30 24 -49 30 -17 88 -6 101 19 21 39 11 67 -36 107 -42 35 -46 41 -35 61
14 26 52 29 75 7 10 -10 17 -12 22 -4 16 27 -56 56 -91 37z"/>
<path d="M1666 2453 c-5 -17 -16 -92 -18 -123 -6 -92 66 -132 132 -72 26 23
33 41 47 114 15 79 14 112 -3 95 -4 -4 -13 -44 -21 -89 -19 -111 -55 -148
-108 -114 -29 19 -31 48 -11 144 10 50 10 62 0 62 -7 0 -15 -8 -18 -17z"/>
<path d="M4531 2407 c-18 -103 -15 -133 15 -156 31 -25 55 -26 93 -6 36 18 49
47 67 155 3 19 8 43 11 53 3 10 -1 17 -10 17 -14 0 -20 -23 -34 -120 -9 -67
-52 -108 -96 -91 -25 10 -42 49 -33 79 3 10 7 35 11 57 3 22 8 48 11 58 3 11
0 17 -9 17 -10 0 -18 -19 -26 -63z"/>
</g>
</svg>
